<svg width="3309" height="3360" viewBox="0 0 3309 3360" fill="none" xmlns="http://www.w3.org/2000/svg">
<path d="M399.203 2737.8C333.236 2737.8 275.501 2763.03 234.285 2805.06C94.0949 2952.21 193.043 3200.24 399.203 3200.24C522.905 3200.24 625.971 3099.35 625.971 2969.02C625.971 2838.69 522.905 2737.8 399.203 2737.8ZM601.244 2657.92L848.623 2409.87C766.161 2308.98 716.689 2178.65 716.689 2039.89C716.689 1829.68 832.134 1636.28 1013.55 1535.39L935.207 1333.6C819.762 1358.84 696.06 1316.78 609.488 1232.7C543.521 1165.44 502.281 1068.74 502.281 967.849C502.281 908.98 514.657 854.332 539.382 808.084L374.465 681.952C333.223 711.386 287.887 728.202 234.274 728.202C28.1105 728.202 -79.0716 471.739 69.357 324.591C160.075 232.09 308.504 232.09 399.198 324.591C440.44 366.643 469.28 425.486 469.28 492.749C469.28 517.985 465.164 543.197 456.905 568.431L621.823 690.341C687.789 631.473 774.367 593.643 869.201 593.643C898.068 593.643 922.794 593.643 947.541 597.841L1021.76 421.258L1005.27 404.442C964.031 362.39 935.19 303.547 935.19 236.284C935.19 105.955 1042.4 0.863281 1170.22 0.863281C1298.05 0.863281 1405.25 105.955 1405.25 236.284C1405.25 303.547 1376.39 362.417 1335.17 404.442C1281.58 459.088 1219.72 480.124 1149.62 475.902L1075.39 656.682C1096 669.301 1112.49 686.116 1128.99 702.932C1194.95 770.195 1236.19 862.696 1236.19 967.788C1236.19 1093.92 1174.34 1215.83 1067.14 1283.09L1141.36 1484.88C1335.14 1434.44 1537.19 1489.08 1677.36 1632.03C1693.85 1648.85 1710.34 1665.66 1722.72 1686.68L2192.75 1379.77C2130.9 1224.22 2180.37 1051.84 2304.08 946.745L2225.74 786.981C2147.4 803.797 2073.19 778.561 2019.57 723.915C1928.85 631.414 1924.74 480.068 2019.57 387.593C2110.29 290.895 2258.72 290.895 2349.41 383.395C2506.1 547.356 2349.41 723.939 2349.41 723.939L2427.75 883.703C2501.98 862.69 2576.18 862.69 2650.41 883.703L2906.04 417.052C2815.32 324.551 2819.46 177.402 2910.16 84.9329C3000.88 -7.56821 3149.3 -7.56821 3240 84.9329C3330.72 177.434 3330.72 328.779 3240 421.255C3182.26 480.123 3103.95 501.134 3025.6 488.518L2769.97 955.17C2934.88 1093.89 2947.26 1350.35 2794.72 1505.92C2650.41 1653.07 2419.52 1653.07 2275.21 1505.92L2266.95 1497.5L1796.92 1808.61C1838.16 1905.31 1850.51 2014.62 1838.16 2119.72L2069.05 2182.79C2085.54 2144.96 2110.29 2111.33 2139.13 2081.89C2283.44 1934.74 2514.32 1934.74 2658.64 2081.89C2741.1 2165.98 2782.34 2287.9 2761.7 2405.62L2873.03 2430.86C2881.29 2414.04 2893.64 2397.22 2910.13 2384.61C3000.85 2292.1 3149.28 2292.1 3239.97 2384.61C3330.69 2477.11 3330.69 2628.45 3239.97 2720.93C3149.26 2813.43 3000.83 2813.43 2910.13 2720.93C2868.89 2683.1 2844.17 2628.43 2840.05 2569.58L2712.23 2540.15C2683.37 2594.79 2638.01 2641.04 2584.42 2670.48L2708.12 2889.09C2786.46 2872.27 2864.8 2897.51 2922.51 2952.15C3013.23 3044.65 3013.23 3196 2922.51 3288.47C2831.79 3380.98 2683.37 3385.17 2592.67 3288.47C2506.09 3200.2 2501.95 3053.05 2584.41 2960.55L2448.36 2716.71C2386.51 2725.13 2320.55 2716.71 2258.7 2691.47L2114.38 2952.13C2151.48 2994.18 2176.23 3048.83 2176.23 3111.89C2176.23 3242.22 2069.03 3351.54 1941.2 3351.54C1813.38 3351.54 1706.17 3242.23 1706.17 3111.89C1706.17 2981.56 1813.38 2872.24 1941.2 2872.24C1957.69 2872.24 1978.3 2876.44 1994.8 2880.66L2143.22 2615.81C2064.88 2535.93 2027.78 2439.22 2031.89 2321.52L1801.01 2254.25C1664.96 2598.99 1244.38 2725.13 951.635 2506.49L700.116 2758.73C716.607 2779.75 728.983 2800.79 737.216 2826C794.95 2964.72 761.967 3124.48 658.877 3233.8C514.564 3380.95 279.539 3380.95 139.367 3233.8C-4.94553 3086.66 -4.94553 2851.23 139.367 2704.09C242.433 2598.99 399.119 2565.36 539.316 2624.21C559.924 2632.63 584.674 2645.22 601.167 2657.84L601.244 2657.92ZM329.114 492.753C329.114 463.318 316.738 442.305 300.247 425.489C283.755 404.475 259.005 396.055 234.28 396.055C110.578 396.055 110.578 589.451 234.28 589.451C287.873 589.451 329.114 543.201 329.114 492.753ZM642.459 967.823C642.459 1093.96 745.526 1199.05 869.228 1199.05C997.045 1199.05 1100.11 1093.96 1100.11 967.823C1100.11 837.494 997.045 732.402 869.228 732.402C745.526 732.402 642.459 837.494 642.459 967.823ZM1170.23 332.988C1223.82 332.988 1265.06 290.936 1265.06 236.29C1265.06 185.842 1223.82 139.592 1170.23 139.592C1116.63 139.592 1075.39 185.842 1075.39 236.29C1075.39 290.936 1120.75 332.988 1170.23 332.988ZM1941.27 3015.25C1887.68 3015.25 1846.44 3057.3 1846.44 3111.95C1846.44 3166.59 1887.68 3208.64 1941.27 3208.64C1994.87 3208.64 2036.11 3166.59 2036.11 3111.95C2036.11 3057.3 1994.87 3015.25 1941.27 3015.25ZM1578.42 1733C1310.41 1463.95 856.892 1661.54 856.892 2039.91C856.892 2157.63 902.251 2266.94 980.594 2346.83C1380.54 2750.44 1970.16 2132.41 1578.44 1733.03L1578.42 1733ZM3141.1 185.91C3104 148.08 3042.15 148.08 3005.05 185.91C2947.32 244.778 2988.56 349.871 3075.13 349.871C3157.59 349.871 3198.84 244.779 3141.1 185.91ZM2250.5 484.397C2213.4 450.765 2151.55 450.765 2114.45 484.397C2081.47 522.227 2081.47 585.292 2114.45 623.12C2151.55 660.95 2213.4 660.95 2250.5 623.12C2287.6 585.291 2287.6 522.225 2250.5 484.397ZM3141.1 2481.37C3104 2447.74 3042.15 2447.74 3005.05 2481.37C2972.07 2519.2 2972.07 2582.27 3005.05 2620.09C3042.15 2657.92 3104 2657.92 3141.1 2620.09C3178.2 2582.26 3178.2 2519.2 3141.1 2481.37ZM2823.61 3053.14C2786.51 3015.31 2728.78 3015.31 2691.68 3053.14C2654.58 3090.97 2654.58 3154.03 2691.68 3191.86C2728.78 3225.5 2786.51 3225.5 2823.61 3191.86C2860.71 3154.03 2860.71 3090.97 2823.61 3053.14ZM2695.8 1077.21C2605.08 988.934 2460.76 988.934 2374.19 1077.21C2283.47 1165.49 2283.47 1316.86 2374.19 1405.14C2460.77 1497.64 2609.22 1497.64 2695.8 1405.14C2782.37 1316.86 2782.37 1165.49 2695.8 1077.21ZM2559.75 2182.88C2473.17 2090.38 2328.86 2090.38 2238.14 2182.88C2151.57 2271.16 2151.57 2418.3 2238.14 2510.8C2324.72 2599.08 2473.17 2599.08 2559.75 2510.8C2650.46 2422.52 2650.46 2271.15 2559.75 2182.88Z" fill="url(#paint0_linear_73_83)"/>
<defs>
<linearGradient id="paint0_linear_73_83" x1="195" y1="1786" x2="3440.5" y2="1886.5" gradientUnits="userSpaceOnUse">
<stop stop-color="#FA8204"/>
<stop offset="1" stop-color="#EDA918"/>
</linearGradient>
</defs>
</svg>
